<svg xmlns="http://www.w3.org/2000/svg" width="470" height="490" viewBox="0 0 470 490">
  <g id="pc" transform="translate(-21 -11)">
    <g id="Group_58" data-name="Group 58">
      <g id="Group_57" data-name="Group 57">
        <path id="Path_98" data-name="Path 98" d="M256,501C126.4,501,21,398.8,21,273.2c0-87.8,50.6-166.3,132.1-204.9a20.42,20.42,0,0,1,17.5,36.9C103.5,137,61.9,201.3,61.9,273.2c0,103.1,87.1,187,194.1,187s194.1-83.9,194.1-187c0-72.4-44-138.9-112.2-169.5a20.388,20.388,0,1,1,16.7-37.2C437.5,103.6,491,184.8,491,273.2,491,398.8,385.6,501,256,501Z" fill="#fff"/>
        <path id="Path_99" data-name="Path 99" d="M256,287.9a20.357,20.357,0,0,1-20.4-20.4V31.4a20.4,20.4,0,1,1,40.8,0V267.5A20.357,20.357,0,0,1,256,287.9Z" fill="#fff"/>
      </g>
    </g>
  </g>
</svg>
